<svg id="Layer_1" data-name="Layer 1" xmlns="http://www.w3.org/2000/svg" viewBox="0 0 1270.99 263.19"><path d="M180.85,240v23.15h-47v-2.37q.09-104.65.21-209.32a3.27,3.27,0,0,0-2-3.36c-9.1-4.85-18.63-8.08-29.14-7.77a31.48,31.48,0,0,0-18.39,6.35c-5,3.77-7.35,9.06-7.69,15.06-.31,5.69-.06,11.41-.06,17.33h29.7v38.22H76.69V263.15h-48V117.49H0V79.25H28.58c0-1,0-1.83,0-2.63.13-6.68.11-13.36.45-20,.6-12,5.45-22.4,13.26-31.46C53.26,12.44,67.49,5.07,84,2a127.07,127.07,0,0,1,19.66-2c13.56-.35,26.9,1.13,39.65,6.13C155.64,11,166.68,17.89,177.2,25.72a8.2,8.2,0,0,1,3.73,7.48Q180.77,136.51,180.85,240Z"/><path d="M221.64,103.11h97.68v6.78H234.08v35.76H314v6.77H234.08v45.52H221.64Z"/><path d="M347.88,103.11h12.44v88.05h86.62l-2.3,6.78H347.88Z"/><path d="M478.27,103.11v57.44c0,25.2,24.19,31.7,47,31.7,27,0,47-6.64,47-31.7V103.11h12.67v57c0,29.67-26.73,38.88-60.13,38.88-31.79,0-59.44-10.16-59.44-37.66V103.11Z"/><path d="M724.77,151.34H642.53v39.82H732.6l-1.84,6.78H630.09V103.11h98.83v6.78H642.53v34.68h82.24Z"/><path d="M764.39,197.94V103.11h18.43c25.12,22.76,84.09,75.73,94.23,86h.23c-1.38-13.68-1.15-27.63-1.15-43.07V103.11H888.8v94.83h-17c-24-21.95-83.86-77.08-95.38-87.51h-.23c1.16,12.46.93,26.28.93,43.48v44Z"/><path d="M968.5,109.89H914.37v-6.78h121.17v6.78H981.17v88.05H968.5Z"/><path d="M1059.5,103.11h12.44v88.05h86.62l-2.3,6.78H1059.5Z"/><path d="M1197.5,197.94V162.31a3.29,3.29,0,0,0-.92-2.17l-57.6-57h14.52c16.12,16.12,44.23,44.16,51.14,51.21,6.91-7,35.25-34.81,52.52-51.21H1271l-60.13,57.58a2.79,2.79,0,0,0-.69,2v35.22Z"/></svg>