<svg id="Layer_1" data-name="Layer 1" xmlns="http://www.w3.org/2000/svg" viewBox="0 0 1281 1281"><defs><style>.cls-1{fill:#fff;stroke:#000;stroke-miterlimit:10;}</style></defs><circle class="cls-1" cx="640.5" cy="640.5" r="640"/><path d="M873.27,947.84v69.66H731.69c0-2.69,0-4.91,0-7.12q.24-315,.62-629.91c0-5-1.57-7.74-6-10.11-27.37-14.58-56-24.32-87.68-23.36-20.47.62-39.13,6.86-55.35,19.08-15.06,11.35-22.12,27.28-23.12,45.32-.94,17.13-.2,34.35-.2,52.16h89.38v115H559.83V1017.4H415.46V579.07H329V464h86c0-3.11-.05-5.52,0-7.93.41-20.08.35-40.19,1.36-60.25,1.82-36.08,16.4-67.4,39.92-94.66,33-38.22,75.8-60.38,125.54-69.51a383,383,0,0,1,59.15-6c40.8-1.05,81,3.39,119.32,18.44,37.06,14.53,70.26,35.25,101.92,58.81,8.26,6.15,11.25,12.32,11.23,22.5Q873,636.3,873.27,947.84Z"/></svg>