<svg id="Layer_1" data-name="Layer 1" xmlns="http://www.w3.org/2000/svg" viewBox="0 0 1281 1281"><defs><style>.cls-1{stroke:#fff;stroke-miterlimit:10;}.cls-2{fill:#fff;}</style></defs><circle class="cls-1" cx="640.5" cy="640.5" r="640"/><path class="cls-2" d="M879.74,940.84v69.66H738.15v-7.12q.26-315,.62-629.91c0-5-1.56-7.74-6-10.11C705.37,348.78,676.69,339,645.06,340c-20.47.62-39.12,6.86-55.35,19.08-15.06,11.35-22.12,27.28-23.11,45.32-1,17.13-.21,34.35-.21,52.16h89.38v115H566.29V1010.4H421.92V572.07H335.5V457h86c0-3.11,0-5.52,0-7.93.4-20.08.35-40.19,1.36-60.25,1.81-36.08,16.4-67.4,39.92-94.66,33-38.22,75.79-60.38,125.53-69.51a383.27,383.27,0,0,1,59.15-6c40.81-1.05,81,3.39,119.32,18.44,37.06,14.53,70.27,35.25,101.92,58.81C877,302.05,880,308.22,880,318.4Q879.46,629.3,879.74,940.84Z"/></svg>