<svg id="Layer_1" data-name="Layer 1" xmlns="http://www.w3.org/2000/svg" viewBox="0 0 879.94 1280"><defs><style>.cls-1{fill:#fff;}</style></defs><path class="cls-1" d="M879.58,1167.42V1280H650.75v-11.51q.39-509,1-1018c0-8.13-2.53-12.5-9.74-16.34-44.23-23.55-90.58-39.3-141.71-37.75-33.08,1-63.23,11.09-89.45,30.84-24.34,18.34-35.75,44.09-37.36,73.25-1.53,27.68-.33,55.51-.33,84.29H517.61V570.66H373v709.18H139.67V571.43H0v-186H139c0-5-.07-8.92,0-12.82.66-32.46.57-65,2.2-97.37,2.93-58.31,26.51-108.94,64.52-153C259,60.49,328.25,24.68,408.63,9.92A618.79,618.79,0,0,1,504.23.24C570.17-1.46,635.07,5.73,697.07,30,757,53.53,810.63,87,861.79,125.09,875.14,135,880,145,879.94,161.45Q879.13,663.94,879.58,1167.42Z"/></svg>