<svg id="Layer_1" data-name="Layer 1" xmlns="http://www.w3.org/2000/svg" xmlns:xlink="http://www.w3.org/1999/xlink" viewBox="0 0 1606.98 1265.52"><defs><style>.cls-1{fill:url(#linear-gradient);}.cls-2{fill:#13253f;}</style><linearGradient id="linear-gradient" x1="440.91" y1="480.81" x2="1101.98" y2="480.81" gradientUnits="userSpaceOnUse"><stop offset="0" stop-color="#00acb4"/><stop offset="0.97" stop-color="#13253f"/></linearGradient></defs><path class="cls-1" d="M1101.71,877.05v84.58H929.8c0-3.27,0-6,0-8.65q.3-382.41.75-764.82c0-6.11-1.9-9.4-7.32-12.28-33.23-17.7-68.05-29.52-106.46-28.36-24.85.76-47.5,8.33-67.2,23.17-18.29,13.78-26.86,33.12-28.07,55-1.15,20.8-.25,41.7-.25,63.32H829.77V428.72H721.13V961.51H545.84V429.3H440.91V289.57H545.35c0-3.78-.05-6.7,0-9.63.49-24.39.42-48.8,1.65-73.15C549.21,163,566.92,125,595.48,91.85c40-46.41,92-73.31,152.42-84.4A466,466,0,0,1,819.72.18C869.26-1.1,918,4.3,964.59,22.57c45,17.64,85.32,42.8,123.76,71.41,10,7.47,13.65,15,13.63,27.31Q1101.38,498.79,1101.71,877.05Z"/><path class="cls-2" d="M47.07,1183.46l-24.64,39.4H7.2l71.16-114H96.08l74.21,114H154l-25.2-39.4Zm76.7-8.14c-21.6-33.86-32.67-50.14-36.55-57.8h-.28c-4.7,8.63-17.16,28.82-34.61,57.8Z"/><path class="cls-2" d="M219.56,1108.89v114H204.61v-114Z"/><path class="cls-2" d="M345.82,1108.89h117.4V1117H360.77v43h96.08v8.14H360.77v54.7H345.82Z"/><path class="cls-2" d="M497.55,1108.89H512.5v105.83H616.61l-2.77,8.14H497.55Z"/><path class="cls-2" d="M654.26,1108.89v69c0,30.28,29.07,38.09,56.48,38.09,32.4,0,56.49-8,56.49-38.09v-69h15.23v68.55c0,35.65-32.12,46.72-72.27,46.72-38.21,0-71.44-12.21-71.44-45.26v-70Z"/><path class="cls-2" d="M950.52,1166.86H851.67v47.86H959.93l-2.21,8.14h-121v-114H955.5V1117H851.67v41.67h98.85Z"/><path class="cls-2" d="M998.14,1222.86v-114h22.15c30.18,27.36,101.06,91,113.24,103.39h.28c-1.66-16.44-1.38-33.21-1.38-51.77v-51.62h15.22v114h-20.48c-28.8-26.37-100.79-92.64-114.64-105.17h-.27c1.38,15,1.1,31.58,1.1,52.26v52.91Z"/><path class="cls-2" d="M1243.45,1117h-65.07v-8.15H1324V1117h-65.35v105.82h-15.22Z"/><path class="cls-2" d="M1352.81,1108.89h15v105.83h104.11l-2.77,8.14H1352.81Z"/><path class="cls-2" d="M1518.66,1222.86V1180a4,4,0,0,0-1.1-2.6l-69.23-68.55h17.45c19.38,19.38,53.16,53.08,61.47,61.55,8.3-8.47,42.36-41.85,63.13-61.55H1607l-72.27,69.2a3.37,3.37,0,0,0-.83,2.44v42.33Z"/></svg>